<svg width="544" height="60" viewBox="0 0 544 60" fill="none" xmlns="http://www.w3.org/2000/svg">
<path d="M15.2641 27.48C15.2641 25.48 14.8041 23.92 13.8841 22.8C12.9641 21.68 11.6641 21.12 9.98406 21.12C8.86406 21.12 7.62406 21.4 6.26406 21.96C4.90406 22.52 3.74406 23.24 2.78406 24.12L2.48406 23.94L1.76406 21.36C3.80406 20.16 5.74406 19.16 7.58406 18.36C9.46406 17.56 10.7841 17.16 11.5441 17.16C14.1441 17.16 16.1841 17.84 17.6641 19.2C19.1441 20.56 19.8841 22.46 19.8841 24.9C19.8841 25.78 19.7441 27.58 19.4641 30.3C19.0241 34.7 18.8041 37.5 18.8041 38.7C18.8041 39.58 19.0241 40.26 19.4641 40.74C19.9041 41.22 20.5041 41.46 21.2641 41.46C21.8241 41.46 22.4241 41.32 23.0641 41.04C23.7441 40.76 24.3441 40.4 24.8641 39.96L25.7041 40.92C25.0641 42.04 24.2441 43.06 23.2441 43.98C22.2841 44.86 21.3641 45.44 20.4841 45.72C17.2441 45.72 15.4641 44.1 15.1441 40.86L14.9041 40.8C13.4641 42.24 12.1441 43.38 10.9441 44.22C9.78406 45.06 8.90406 45.48 8.30406 45.48C6.06406 45.48 4.22406 44.78 2.78406 43.38C1.34406 41.98 0.624063 40.2 0.624063 38.04C0.624063 36.88 0.904063 35.86 1.46406 34.98C2.06406 34.1 2.84406 33.52 3.80406 33.24L15.1441 30.12L15.2641 27.48ZM6.92406 34.86C5.76406 35.22 5.18406 36.06 5.18406 37.38C5.18406 38.54 5.56406 39.5 6.32406 40.26C7.12406 41.02 8.12406 41.4 9.32406 41.4C10.0841 41.4 10.9641 41.14 11.9641 40.62C13.0041 40.06 13.9441 39.36 14.7841 38.52L15.0241 32.4L6.92406 34.86ZM61.12 21.48C61.12 20.92 60.92 20.54 60.52 20.34C60.16 20.1 59.54 19.98 58.66 19.98H56.44L56.2 19.62L56.5 17.76C56.86 17.76 57.58 17.78 58.66 17.82C59.74 17.86 61 17.88 62.44 17.88L67.36 17.82L66.94 20.04C66.14 20.12 65.5 20.46 65.02 21.06C64.54 21.62 63.94 22.78 63.22 24.54L54.76 45L51.58 46.02L46.18 28.32H45.82L39.16 45L35.92 46.02C35.36 44.1 34.2 40.34 32.44 34.74C30.72 29.1 29.52 25.2 28.84 23.04C28.16 21.08 26.84 20.08 24.88 20.04L24.76 19.8L25.12 17.82L29.92 17.88C31.44 17.88 32.88 17.82 34.24 17.7C35.64 17.58 36.54 17.5 36.94 17.46L37.06 17.76L36.7 19.62C35.38 19.66 34.48 19.8 34 20.04C33.52 20.24 33.28 20.62 33.28 21.18C33.28 21.94 33.96 24.84 35.32 29.88C36.72 34.92 37.68 38.34 38.2 40.14H38.44C38.44 40.14 39.56 37.34 41.8 31.74L44.8 24C44.36 22.64 43.82 21.64 43.18 21C42.58 20.36 41.7 20.04 40.54 20.04L40.42 19.8L40.78 17.82L45.58 17.88C47.06 17.88 48.5 17.84 49.9 17.76C51.3 17.68 52.2 17.62 52.6 17.58L52.72 17.88L52.36 19.74C51 19.78 50.08 19.9 49.6 20.1C49.16 20.3 48.94 20.66 48.94 21.18C48.94 21.9 49.62 24.8 50.98 29.88C52.38 34.92 53.34 38.34 53.86 40.14H54.1L57.4 31.86C58.8 28.38 59.76 25.9 60.28 24.42C60.84 22.94 61.12 21.96 61.12 21.48ZM73.0272 30.48C73.0272 33.84 73.8272 36.54 75.4272 38.58C77.0672 40.62 79.2272 41.64 81.9072 41.64C83.0272 41.64 84.1272 41.5 85.2072 41.22C86.2872 40.94 87.1872 40.66 87.9072 40.38C88.6272 40.06 89.0872 39.86 89.2872 39.78L89.6472 39.9L90.3072 41.64C90.0272 41.84 89.3672 42.28 88.3272 42.96C87.3272 43.6 86.1472 44.22 84.7872 44.82C83.4272 45.42 82.2072 45.72 81.1272 45.72C78.6472 45.72 76.4472 45.18 74.5272 44.1C72.6072 42.98 71.1272 41.42 70.0872 39.42C69.0472 37.38 68.5272 35.06 68.5272 32.46C68.5272 29.78 69.1272 27.26 70.3272 24.9C71.5672 22.54 73.2072 20.66 75.2472 19.26C77.2872 17.86 79.4672 17.16 81.7872 17.16C84.7072 17.16 86.9272 17.9 88.4472 19.38C89.9672 20.86 90.7272 23.02 90.7272 25.86C90.7272 26.5 90.6672 27.12 90.5472 27.72C90.4672 28.28 90.4072 28.64 90.3672 28.8L89.5872 29.52H73.0272V30.48ZM84.1272 26.76C84.7272 26.68 85.1272 26.54 85.3272 26.34C85.5272 26.14 85.6272 25.74 85.6272 25.14C85.6272 23.54 85.1872 22.32 84.3072 21.48C83.4672 20.64 82.2472 20.22 80.6472 20.22C78.7672 20.22 77.1472 20.86 75.7872 22.14C74.4672 23.42 73.6272 25.14 73.2672 27.3L84.1272 26.76ZM103.522 45.72C102.242 45.72 101.062 45.62 99.9817 45.42C98.9417 45.26 98.1217 45.08 97.5217 44.88C96.9217 44.68 96.5417 44.54 96.3817 44.46L96.2017 44.04C96.3217 43.44 96.4617 42.2 96.6217 40.32C96.7817 38.44 96.8817 37 96.9217 36L99.0217 35.7C99.0217 38.34 99.4617 40.2 100.342 41.28C101.222 42.36 102.722 42.9 104.842 42.9C106.362 42.9 107.642 42.56 108.682 41.88C109.722 41.2 110.242 40.36 110.242 39.36C110.242 38.36 109.762 37.46 108.802 36.66C107.882 35.82 106.042 34.66 103.282 33.18C101.002 32.02 99.3417 30.86 98.3017 29.7C97.2617 28.5 96.7417 27.18 96.7417 25.74C96.7417 24.14 97.2217 22.68 98.1817 21.36C99.1417 20.04 100.462 19.02 102.142 18.3C103.822 17.54 105.702 17.16 107.782 17.16C108.742 17.16 109.662 17.24 110.542 17.4C111.422 17.52 112.142 17.66 112.702 17.82C113.262 17.98 113.622 18.08 113.782 18.12L113.902 18.42C113.822 18.82 113.642 19.74 113.362 21.18C113.082 22.58 112.882 24.1 112.762 25.74L110.542 25.92C110.542 25.8 110.562 25.56 110.602 25.2C110.642 24.84 110.662 24.5 110.662 24.18C110.662 22.74 110.262 21.7 109.462 21.06C108.702 20.38 107.462 20.04 105.742 20.04C104.382 20.04 103.222 20.36 102.262 21C101.342 21.64 100.882 22.42 100.882 23.34C100.882 24.3 101.282 25.2 102.082 26.04C102.922 26.88 104.262 27.78 106.102 28.74C109.342 30.46 111.542 31.9 112.702 33.06C113.902 34.22 114.502 35.56 114.502 37.08C114.502 38.6 113.982 40.02 112.942 41.34C111.942 42.66 110.602 43.72 108.922 44.52C107.242 45.32 105.442 45.72 103.522 45.72ZM131.202 45.72C128.922 45.72 126.902 45.16 125.142 44.04C123.382 42.92 122.002 41.36 121.002 39.36C120.042 37.32 119.562 35 119.562 32.4C119.562 29.6 120.162 27.04 121.362 24.72C122.602 22.36 124.282 20.52 126.402 19.2C128.522 17.84 130.882 17.16 133.482 17.16C135.722 17.16 137.722 17.72 139.482 18.84C141.282 19.96 142.662 21.54 143.622 23.58C144.622 25.58 145.122 27.88 145.122 30.48C145.122 33.28 144.502 35.86 143.262 38.22C142.062 40.54 140.402 42.38 138.282 43.74C136.162 45.06 133.802 45.72 131.202 45.72ZM132.882 42.78C135.122 42.78 136.902 41.88 138.222 40.08C139.542 38.24 140.202 35.76 140.202 32.64C140.202 30.28 139.842 28.18 139.122 26.34C138.402 24.46 137.382 23 136.062 21.96C134.782 20.92 133.322 20.4 131.682 20.4C129.442 20.4 127.662 21.32 126.342 23.16C125.022 25 124.362 27.5 124.362 30.66C124.362 33.02 124.722 35.12 125.442 36.96C126.162 38.8 127.162 40.24 128.442 41.28C129.722 42.28 131.202 42.78 132.882 42.78ZM166.785 43.26C167.985 42.94 168.845 42.48 169.365 41.88C169.885 41.24 170.145 40.4 170.145 39.36L170.385 27.48C170.385 25.48 169.945 23.94 169.065 22.86C168.225 21.78 167.005 21.24 165.405 21.24C164.125 21.24 162.825 21.58 161.505 22.26C160.185 22.9 159.025 23.6 158.025 24.36C157.665 32.64 157.485 37.56 157.485 39.12C157.485 40.36 157.645 41.24 157.965 41.76C158.285 42.24 158.845 42.48 159.645 42.48C160.085 42.48 160.505 42.46 160.905 42.42C161.305 42.38 161.585 42.36 161.745 42.36L161.865 42.6L161.325 45.18C160.965 45.14 160.265 45.1 159.225 45.06C158.185 45.02 157.065 45 155.865 45C154.545 45 153.325 45.02 152.205 45.06C151.085 45.1 150.325 45.12 149.925 45.12L150.285 42.66C151.445 42.54 152.245 42.24 152.685 41.76C153.165 41.28 153.405 40.48 153.405 39.36V24.72C153.405 23.36 153.185 22.42 152.745 21.9C152.305 21.34 151.545 21.06 150.465 21.06H149.805L149.625 20.82L149.805 18.84C151.525 18.56 153.225 18.24 154.905 17.88C156.625 17.48 157.725 17.22 158.205 17.1L158.565 17.58C158.485 17.82 158.365 18.34 158.205 19.14C158.045 19.9 157.945 20.7 157.905 21.54L158.025 21.72C162.505 18.68 165.445 17.16 166.845 17.16C168.765 17.16 170.385 17.58 171.705 18.42C173.025 19.22 173.965 20.38 174.525 21.9C175.965 20.86 177.585 19.82 179.385 18.78C181.185 17.7 182.585 17.16 183.585 17.16C186.105 17.16 188.105 17.86 189.585 19.26C191.065 20.66 191.805 22.54 191.805 24.9C191.805 25.3 191.685 27.14 191.445 30.42C191.125 34.58 190.965 37.48 190.965 39.12C190.965 40.36 191.125 41.24 191.445 41.76C191.765 42.24 192.325 42.48 193.125 42.48C193.565 42.48 193.985 42.46 194.385 42.42C194.785 42.38 195.065 42.36 195.225 42.36L195.345 42.6L194.805 45.18C194.445 45.14 193.745 45.1 192.705 45.06C191.665 45.02 190.545 45 189.345 45C188.305 45 187.145 45.04 185.865 45.12C184.625 45.24 183.805 45.32 183.405 45.36L183.705 42.9C184.865 42.7 185.685 42.34 186.165 41.82C186.645 41.3 186.885 40.48 186.885 39.36L187.125 27.48C187.125 25.48 186.685 23.94 185.805 22.86C184.965 21.78 183.745 21.24 182.145 21.24C180.065 21.24 177.645 22.24 174.885 24.24L174.225 39.12C174.225 40.28 174.385 41.14 174.705 41.7C175.025 42.22 175.565 42.48 176.325 42.48C176.765 42.48 177.185 42.46 177.585 42.42C177.985 42.38 178.265 42.36 178.425 42.36L178.545 42.6L178.065 45.18C177.705 45.14 177.025 45.1 176.025 45.06C175.025 45.02 173.925 45 172.725 45C171.685 45 170.485 45.1 169.125 45.3C167.805 45.5 166.945 45.64 166.545 45.72L166.785 43.26ZM203.867 30.48C203.867 33.84 204.667 36.54 206.267 38.58C207.907 40.62 210.067 41.64 212.747 41.64C213.867 41.64 214.967 41.5 216.047 41.22C217.127 40.94 218.027 40.66 218.747 40.38C219.467 40.06 219.927 39.86 220.127 39.78L220.487 39.9L221.147 41.64C220.867 41.84 220.207 42.28 219.167 42.96C218.167 43.6 216.987 44.22 215.627 44.82C214.267 45.42 213.047 45.72 211.967 45.72C209.487 45.72 207.287 45.18 205.367 44.1C203.447 42.98 201.967 41.42 200.927 39.42C199.887 37.38 199.367 35.06 199.367 32.46C199.367 29.78 199.967 27.26 201.167 24.9C202.407 22.54 204.047 20.66 206.087 19.26C208.127 17.86 210.307 17.16 212.627 17.16C215.547 17.16 217.767 17.9 219.287 19.38C220.807 20.86 221.567 23.02 221.567 25.86C221.567 26.5 221.507 27.12 221.387 27.72C221.307 28.28 221.247 28.64 221.207 28.8L220.427 29.52H203.867V30.48ZM214.967 26.76C215.567 26.68 215.967 26.54 216.167 26.34C216.367 26.14 216.467 25.74 216.467 25.14C216.467 23.54 216.027 22.32 215.147 21.48C214.307 20.64 213.087 20.22 211.487 20.22C209.607 20.22 207.987 20.86 206.627 22.14C205.307 23.42 204.467 25.14 204.107 27.3L214.967 26.76ZM247.022 41.7C246.742 41.9 246.122 42.32 245.162 42.96C244.242 43.6 243.162 44.22 241.922 44.82C240.722 45.42 239.682 45.72 238.802 45.72C235.002 45.72 231.962 44.52 229.682 42.12C227.402 39.72 226.262 36.5 226.262 32.46C226.262 29.62 226.862 27.04 228.062 24.72C229.302 22.36 230.962 20.52 233.042 19.2C235.162 17.84 237.522 17.16 240.122 17.16C241.242 17.16 242.322 17.24 243.362 17.4C244.402 17.56 245.242 17.74 245.882 17.94C246.562 18.1 246.982 18.22 247.142 18.3L247.322 18.72C247.282 18.92 247.162 19.4 246.962 20.16C246.802 20.88 246.622 21.86 246.422 23.1C246.222 24.3 246.102 25.6 246.062 27L243.602 27.18V25.32C243.602 23.84 243.142 22.66 242.222 21.78C241.342 20.86 240.162 20.4 238.682 20.4C236.242 20.4 234.362 21.28 233.042 23.04C231.722 24.76 231.062 27.22 231.062 30.42C231.062 33.9 231.782 36.66 233.222 38.7C234.702 40.7 236.702 41.7 239.222 41.7C240.222 41.7 241.222 41.56 242.222 41.28C243.222 40.96 244.062 40.66 244.742 40.38C245.422 40.06 245.842 39.84 246.002 39.72L246.362 39.84L247.022 41.7ZM262.628 45.72C260.348 45.72 258.328 45.16 256.568 44.04C254.808 42.92 253.428 41.36 252.428 39.36C251.468 37.32 250.988 35 250.988 32.4C250.988 29.6 251.588 27.04 252.788 24.72C254.028 22.36 255.708 20.52 257.828 19.2C259.948 17.84 262.308 17.16 264.908 17.16C267.148 17.16 269.148 17.72 270.908 18.84C272.708 19.96 274.088 21.54 275.048 23.58C276.048 25.58 276.548 27.88 276.548 30.48C276.548 33.28 275.928 35.86 274.688 38.22C273.488 40.54 271.828 42.38 269.708 43.74C267.588 45.06 265.228 45.72 262.628 45.72ZM264.308 42.78C266.548 42.78 268.328 41.88 269.648 40.08C270.968 38.24 271.628 35.76 271.628 32.64C271.628 30.28 271.268 28.18 270.548 26.34C269.828 24.46 268.808 23 267.488 21.96C266.208 20.92 264.748 20.4 263.108 20.4C260.868 20.4 259.088 21.32 257.768 23.16C256.448 25 255.788 27.5 255.788 30.66C255.788 33.02 256.148 35.12 256.868 36.96C257.588 38.8 258.588 40.24 259.868 41.28C261.148 42.28 262.628 42.78 264.308 42.78ZM299.951 41.28C295.791 44.12 293.291 45.54 292.451 45.54C290.171 45.54 288.151 45.02 286.391 43.98C284.631 42.9 283.271 41.4 282.311 39.48C281.351 37.56 280.871 35.36 280.871 32.88C280.871 30.04 281.531 27.42 282.851 25.02C284.211 22.62 286.031 20.72 288.311 19.32C290.631 17.88 293.131 17.16 295.811 17.16C297.091 17.16 298.471 17.24 299.951 17.4V7.44C299.951 5.28 299.211 4.2 297.731 4.2C297.451 4.2 297.151 4.24 296.831 4.32C296.511 4.36 296.311 4.4 296.231 4.44L296.471 2.22C298.191 1.98 299.971 1.66 301.811 1.26C303.651 0.859998 304.831 0.599998 305.351 0.479997L305.711 1.26C305.271 1.94 304.871 6.16 304.511 13.92C304.191 21.68 304.031 29.94 304.031 38.7C304.031 39.58 304.251 40.26 304.691 40.74C305.131 41.22 305.731 41.46 306.491 41.46C307.051 41.46 307.591 41.36 308.111 41.16C308.671 40.92 309.111 40.68 309.431 40.44C309.791 40.2 310.011 40.04 310.091 39.96L310.931 40.92C310.811 41.12 310.511 41.56 310.031 42.24C309.551 42.88 308.911 43.56 308.111 44.28C307.351 45 306.551 45.48 305.711 45.72C302.591 45.72 300.811 44.3 300.371 41.46L299.951 41.28ZM299.951 22.02C299.831 21.94 299.531 21.8 299.051 21.6C298.571 21.36 297.891 21.14 297.011 20.94C296.171 20.74 295.211 20.64 294.131 20.64C291.451 20.64 289.331 21.56 287.771 23.4C286.251 25.2 285.491 27.68 285.491 30.84C285.491 32.84 285.831 34.66 286.511 36.3C287.231 37.94 288.191 39.24 289.391 40.2C290.631 41.16 291.971 41.64 293.411 41.64C294.251 41.64 295.151 41.4 296.111 40.92C297.111 40.44 297.951 39.96 298.631 39.48C299.311 38.96 299.751 38.62 299.951 38.46V22.02ZM317.598 30.48C317.598 33.84 318.398 36.54 319.998 38.58C321.638 40.62 323.798 41.64 326.478 41.64C327.598 41.64 328.698 41.5 329.778 41.22C330.858 40.94 331.758 40.66 332.478 40.38C333.198 40.06 333.658 39.86 333.858 39.78L334.218 39.9L334.878 41.64C334.598 41.84 333.938 42.28 332.898 42.96C331.898 43.6 330.718 44.22 329.358 44.82C327.998 45.42 326.778 45.72 325.698 45.72C323.218 45.72 321.018 45.18 319.098 44.1C317.178 42.98 315.698 41.42 314.658 39.42C313.618 37.38 313.098 35.06 313.098 32.46C313.098 29.78 313.698 27.26 314.897 24.9C316.138 22.54 317.778 20.66 319.818 19.26C321.858 17.86 324.038 17.16 326.357 17.16C329.278 17.16 331.498 17.9 333.018 19.38C334.538 20.86 335.298 23.02 335.298 25.86C335.298 26.5 335.238 27.12 335.118 27.72C335.038 28.28 334.978 28.64 334.938 28.8L334.158 29.52H317.598V30.48ZM328.698 26.76C329.298 26.68 329.698 26.54 329.898 26.34C330.098 26.14 330.198 25.74 330.198 25.14C330.198 23.54 329.758 22.32 328.878 21.48C328.038 20.64 326.818 20.22 325.218 20.22C323.338 20.22 321.718 20.86 320.358 22.14C319.038 23.42 318.198 25.14 317.838 27.3L328.698 26.76ZM348.092 45.72C346.812 45.72 345.632 45.62 344.552 45.42C343.512 45.26 342.692 45.08 342.092 44.88C341.492 44.68 341.112 44.54 340.952 44.46L340.772 44.04C340.892 43.44 341.032 42.2 341.192 40.32C341.352 38.44 341.452 37 341.492 36L343.592 35.7C343.592 38.34 344.032 40.2 344.912 41.28C345.792 42.36 347.292 42.9 349.412 42.9C350.932 42.9 352.212 42.56 353.252 41.88C354.292 41.2 354.812 40.36 354.812 39.36C354.812 38.36 354.332 37.46 353.372 36.66C352.452 35.82 350.612 34.66 347.852 33.18C345.572 32.02 343.912 30.86 342.872 29.7C341.832 28.5 341.312 27.18 341.312 25.74C341.312 24.14 341.792 22.68 342.752 21.36C343.712 20.04 345.032 19.02 346.712 18.3C348.392 17.54 350.272 17.16 352.352 17.16C353.312 17.16 354.232 17.24 355.112 17.4C355.992 17.52 356.712 17.66 357.272 17.82C357.832 17.98 358.192 18.08 358.352 18.12L358.472 18.42C358.392 18.82 358.212 19.74 357.932 21.18C357.652 22.58 357.452 24.1 357.332 25.74L355.112 25.92C355.112 25.8 355.132 25.56 355.172 25.2C355.212 24.84 355.232 24.5 355.232 24.18C355.232 22.74 354.832 21.7 354.032 21.06C353.272 20.38 352.032 20.04 350.312 20.04C348.952 20.04 347.792 20.36 346.832 21C345.912 21.64 345.452 22.42 345.452 23.34C345.452 24.3 345.852 25.2 346.652 26.04C347.492 26.88 348.832 27.78 350.672 28.74C353.912 30.46 356.112 31.9 357.272 33.06C358.472 34.22 359.072 35.56 359.072 37.08C359.072 38.6 358.552 40.02 357.512 41.34C356.512 42.66 355.172 43.72 353.492 44.52C351.812 45.32 350.012 45.72 348.092 45.72ZM381.473 43.26C382.673 42.94 383.533 42.48 384.053 41.88C384.573 41.24 384.833 40.4 384.833 39.36L385.073 27.48C385.073 25.48 384.633 23.94 383.753 22.86C382.913 21.78 381.693 21.24 380.093 21.24C378.813 21.24 377.513 21.58 376.193 22.26C374.873 22.9 373.713 23.6 372.713 24.36C372.353 32.64 372.173 37.56 372.173 39.12C372.173 40.36 372.333 41.24 372.653 41.76C372.973 42.24 373.533 42.48 374.333 42.48C374.773 42.48 375.193 42.46 375.593 42.42C375.993 42.38 376.273 42.36 376.433 42.36L376.553 42.6L376.013 45.18C375.653 45.14 374.953 45.1 373.913 45.06C372.873 45.02 371.753 45 370.553 45C369.513 45 368.353 45.04 367.073 45.12C365.833 45.24 365.013 45.32 364.613 45.36L364.913 42.9C366.073 42.7 366.893 42.34 367.373 41.82C367.853 41.3 368.093 40.48 368.093 39.36V24.72C368.093 23.36 367.873 22.42 367.433 21.9C366.993 21.34 366.233 21.06 365.153 21.06H364.493L364.313 20.82L364.493 18.84C366.213 18.56 367.913 18.24 369.593 17.88C371.313 17.48 372.413 17.22 372.893 17.1L373.253 17.58C373.173 17.82 373.053 18.34 372.893 19.14C372.733 19.9 372.633 20.7 372.593 21.54L372.713 21.72C377.273 18.68 380.213 17.16 381.533 17.16C384.053 17.16 386.053 17.86 387.533 19.26C389.013 20.66 389.753 22.54 389.753 24.9C389.753 25.3 389.633 27.14 389.393 30.42C389.073 34.58 388.913 37.48 388.913 39.12C388.913 40.28 389.073 41.14 389.393 41.7C389.713 42.22 390.253 42.48 391.013 42.48C391.453 42.48 391.873 42.46 392.273 42.42C392.673 42.38 392.953 42.36 393.113 42.36L393.233 42.6L392.753 45.18C392.393 45.14 391.713 45.1 390.713 45.06C389.713 45.02 388.613 45 387.413 45C386.373 45 385.173 45.1 383.813 45.3C382.493 45.5 381.633 45.64 381.233 45.72L381.473 43.26ZM403.644 8.88C402.764 8.88 402.044 8.6 401.484 8.04C400.964 7.48 400.704 6.74 400.704 5.82C400.704 4.82 401.044 3.98 401.724 3.3C402.404 2.62 403.244 2.28 404.244 2.28C405.084 2.28 405.784 2.58 406.344 3.18C406.904 3.74 407.184 4.46 407.184 5.34C407.184 6.34 406.844 7.18 406.164 7.86C405.484 8.54 404.644 8.88 403.644 8.88ZM398.544 43.26C399.744 42.94 400.604 42.48 401.124 41.88C401.644 41.24 401.904 40.4 401.904 39.36V24.12C401.904 21.96 401.164 20.88 399.684 20.88C399.404 20.88 399.104 20.92 398.784 21C398.464 21.04 398.264 21.08 398.184 21.12L398.424 18.9C400.104 18.66 401.824 18.34 403.584 17.94C405.384 17.54 406.544 17.28 407.064 17.16L407.364 17.88C407.004 18.72 406.684 21.3 406.404 25.62C406.124 29.9 405.984 34.4 405.984 39.12C405.984 40.28 406.144 41.14 406.464 41.7C406.784 42.22 407.324 42.48 408.084 42.48C408.524 42.48 408.944 42.46 409.344 42.42C409.744 42.38 410.024 42.36 410.184 42.36L410.304 42.6L409.824 45.18C409.464 45.14 408.784 45.1 407.784 45.06C406.784 45.02 405.684 45 404.484 45C403.444 45 402.244 45.1 400.884 45.3C399.564 45.5 398.704 45.64 398.304 45.72L398.544 43.26ZM415.598 56.88C416.478 56.76 417.118 56.58 417.518 56.34C417.958 56.1 418.258 55.7 418.418 55.14C418.578 54.58 418.658 53.72 418.658 52.56C418.658 50.88 418.678 49.44 418.718 48.24L418.778 42.6V24.72C418.778 23.36 418.558 22.42 418.118 21.9C417.678 21.34 416.918 21.06 415.838 21.06H415.178L414.998 20.82L415.178 18.84C416.898 18.56 418.598 18.24 420.278 17.88C421.998 17.48 423.098 17.22 423.578 17.1L423.938 17.58C423.898 17.78 423.798 18.22 423.638 18.9C423.518 19.54 423.418 20.18 423.338 20.82L423.578 21.24C427.338 18.64 429.658 17.34 430.538 17.34C432.818 17.34 434.838 17.88 436.598 18.96C438.358 20 439.718 21.48 440.678 23.4C441.638 25.32 442.118 27.52 442.118 30C442.118 32.84 441.438 35.46 440.078 37.86C438.718 40.26 436.898 42.18 434.618 43.62C432.338 45.02 429.858 45.72 427.178 45.72C426.298 45.72 425.418 45.68 424.538 45.6C423.698 45.56 423.118 45.52 422.798 45.48L422.858 51.66C422.858 53.5 423.038 54.74 423.398 55.38C423.798 56.06 424.558 56.4 425.678 56.4L427.718 56.34L427.838 56.52L427.358 58.8H421.658C420.218 58.8 418.878 58.86 417.638 58.98C416.438 59.1 415.658 59.18 415.298 59.22L415.598 56.88ZM422.858 41.28C423.658 41.6 424.598 41.88 425.678 42.12C426.798 42.32 427.858 42.42 428.858 42.42C431.538 42.42 433.638 41.52 435.158 39.72C436.718 37.88 437.498 35.38 437.498 32.22C437.498 30.22 437.138 28.4 436.418 26.76C435.738 25.12 434.778 23.82 433.538 22.86C432.338 21.9 431.018 21.42 429.578 21.42C428.778 21.42 427.798 21.7 426.638 22.26C425.478 22.78 424.378 23.48 423.338 24.36C423.018 29.6 422.858 35.24 422.858 41.28ZM447.297 56.88C448.177 56.76 448.817 56.58 449.217 56.34C449.657 56.1 449.957 55.7 450.117 55.14C450.277 54.58 450.357 53.72 450.357 52.56C450.357 50.88 450.377 49.44 450.417 48.24L450.477 42.6V24.72C450.477 23.36 450.257 22.42 449.817 21.9C449.377 21.34 448.617 21.06 447.537 21.06H446.877L446.697 20.82L446.877 18.84C448.597 18.56 450.297 18.24 451.977 17.88C453.697 17.48 454.797 17.22 455.277 17.1L455.637 17.58C455.597 17.78 455.497 18.22 455.337 18.9C455.217 19.54 455.117 20.18 455.037 20.82L455.277 21.24C459.037 18.64 461.357 17.34 462.237 17.34C464.517 17.34 466.537 17.88 468.297 18.96C470.057 20 471.417 21.48 472.377 23.4C473.337 25.32 473.817 27.52 473.817 30C473.817 32.84 473.137 35.46 471.777 37.86C470.417 40.26 468.597 42.18 466.317 43.62C464.037 45.02 461.557 45.72 458.877 45.72C457.997 45.72 457.117 45.68 456.237 45.6C455.397 45.56 454.817 45.52 454.497 45.48L454.557 51.66C454.557 53.5 454.737 54.74 455.097 55.38C455.497 56.06 456.257 56.4 457.377 56.4L459.417 56.34L459.537 56.52L459.057 58.8H453.357C451.917 58.8 450.577 58.86 449.337 58.98C448.137 59.1 447.357 59.18 446.997 59.22L447.297 56.88ZM454.557 41.28C455.357 41.6 456.297 41.88 457.377 42.12C458.497 42.32 459.557 42.42 460.557 42.42C463.237 42.42 465.337 41.52 466.857 39.72C468.417 37.88 469.197 35.38 469.197 32.22C469.197 30.22 468.837 28.4 468.117 26.76C467.437 25.12 466.477 23.82 465.237 22.86C464.037 21.9 462.717 21.42 461.277 21.42C460.477 21.42 459.497 21.7 458.337 22.26C457.177 22.78 456.077 23.48 455.037 24.36C454.717 29.6 454.557 35.24 454.557 41.28ZM482.656 30.48C482.656 33.84 483.456 36.54 485.056 38.58C486.696 40.62 488.856 41.64 491.536 41.64C492.656 41.64 493.756 41.5 494.836 41.22C495.916 40.94 496.816 40.66 497.536 40.38C498.256 40.06 498.716 39.86 498.916 39.78L499.276 39.9L499.936 41.64C499.656 41.84 498.996 42.28 497.956 42.96C496.956 43.6 495.776 44.22 494.416 44.82C493.056 45.42 491.836 45.72 490.756 45.72C488.276 45.72 486.076 45.18 484.156 44.1C482.236 42.98 480.756 41.42 479.716 39.42C478.676 37.38 478.156 35.06 478.156 32.46C478.156 29.78 478.756 27.26 479.956 24.9C481.196 22.54 482.836 20.66 484.876 19.26C486.916 17.86 489.096 17.16 491.416 17.16C494.336 17.16 496.556 17.9 498.076 19.38C499.596 20.86 500.356 23.02 500.356 25.86C500.356 26.5 500.296 27.12 500.176 27.72C500.096 28.28 500.036 28.64 499.996 28.8L499.216 29.52H482.656V30.48ZM493.756 26.76C494.356 26.68 494.756 26.54 494.956 26.34C495.156 26.14 495.256 25.74 495.256 25.14C495.256 23.54 494.816 22.32 493.936 21.48C493.096 20.64 491.876 20.22 490.276 20.22C488.396 20.22 486.776 20.86 485.416 22.14C484.096 23.42 483.256 25.14 482.896 27.3L493.756 26.76ZM507.811 23.7C507.811 22.62 507.571 21.86 507.091 21.42C506.611 20.98 505.711 20.74 504.391 20.7L504.151 20.34L504.451 18.54C505.611 17.98 506.731 17.3 507.811 16.5C508.931 15.66 509.831 14.94 510.511 14.34C511.231 13.7 511.691 13.28 511.891 13.08L513.091 13.56C513.051 13.76 512.991 14.24 512.911 15C512.831 15.76 512.731 16.78 512.611 18.06L521.431 17.88L521.611 18.06L521.071 21.24L512.371 21.06C512.091 25.46 511.951 30.46 511.951 36.06C511.951 38.1 512.291 39.54 512.971 40.38C513.691 41.22 514.911 41.64 516.631 41.64C517.231 41.64 517.831 41.56 518.431 41.4C519.031 41.24 519.531 41.08 519.931 40.92C520.331 40.72 520.591 40.6 520.711 40.56L521.311 42.12C521.071 42.32 520.551 42.7 519.751 43.26C518.991 43.82 518.151 44.38 517.231 44.94C516.351 45.46 515.691 45.72 515.251 45.72C512.531 45.72 510.611 45.18 509.491 44.1C508.371 42.98 507.811 41.1 507.811 38.46V23.7ZM532.955 45.72C531.675 45.72 530.495 45.62 529.415 45.42C528.375 45.26 527.555 45.08 526.955 44.88C526.355 44.68 525.975 44.54 525.815 44.46L525.635 44.04C525.755 43.44 525.895 42.2 526.055 40.32C526.215 38.44 526.315 37 526.355 36L528.455 35.7C528.455 38.34 528.895 40.2 529.775 41.28C530.655 42.36 532.155 42.9 534.275 42.9C535.795 42.9 537.075 42.56 538.115 41.88C539.155 41.2 539.675 40.36 539.675 39.36C539.675 38.36 539.195 37.46 538.235 36.66C537.315 35.82 535.475 34.66 532.715 33.18C530.435 32.02 528.775 30.86 527.735 29.7C526.695 28.5 526.175 27.18 526.175 25.74C526.175 24.14 526.655 22.68 527.615 21.36C528.575 20.04 529.895 19.02 531.575 18.3C533.255 17.54 535.135 17.16 537.215 17.16C538.175 17.16 539.095 17.24 539.975 17.4C540.855 17.52 541.575 17.66 542.135 17.82C542.695 17.98 543.055 18.08 543.215 18.12L543.335 18.42C543.255 18.82 543.075 19.74 542.795 21.18C542.515 22.58 542.315 24.1 542.195 25.74L539.975 25.92C539.975 25.8 539.995 25.56 540.035 25.2C540.075 24.84 540.095 24.5 540.095 24.18C540.095 22.74 539.695 21.7 538.895 21.06C538.135 20.38 536.895 20.04 535.175 20.04C533.815 20.04 532.655 20.36 531.695 21C530.775 21.64 530.315 22.42 530.315 23.34C530.315 24.3 530.715 25.2 531.515 26.04C532.355 26.88 533.695 27.78 535.535 28.74C538.775 30.46 540.975 31.9 542.135 33.06C543.335 34.22 543.935 35.56 543.935 37.08C543.935 38.6 543.415 40.02 542.375 41.34C541.375 42.66 540.035 43.72 538.355 44.52C536.675 45.32 534.875 45.72 532.955 45.72Z" fill="green"/>
</svg>
