<svg width="1440" height="477" viewBox="0 0 1440 477" fill="#00d084ff" xmlns="http://www.w3.org/2000/svg">
<path fill-rule="evenodd" clip-rule="evenodd" d="M1440 189.558C866.435 -61.2302 550.974 -65.1339 0 189.558V476H1440V189.558Z" fill="#2B7C85"/>
<path d="M0 189.558L-0.209798 189.104L-0.5 189.238V189.558H0ZM1440 189.558H1440.5V189.23L1440.2 189.099L1440 189.558ZM0 476H-0.5V476.5H0V476ZM1440 476V476.5H1440.5V476H1440ZM0.209798 190.011C275.665 62.6803 492.198 0.0150981 711.527 0.502825C930.86 0.990558 1153.04 64.6329 1439.8 190.016L1440.2 189.099C1153.39 63.6944 931.062 -0.00899398 711.529 -0.497173C491.994 -0.985358 275.309 61.7433 -0.209798 189.104L0.209798 190.011ZM0.5 476V189.558H-0.5V476H0.5ZM1440 475.5H0V476.5H1440V475.5ZM1439.5 189.558V476H1440.5V189.558H1439.5Z" fill="#00d084ff"/>
</svg>
